<?xml version="1.0" encoding="utf-8"?>
<!-- Generator: Adobe Illustrator 28.0.0, SVG Export Plug-In . SVG Version: 6.00 Build 0)  -->
<svg version="1.1" id="Layer_1" xmlns="http://www.w3.org/2000/svg" xmlns:xlink="http://www.w3.org/1999/xlink" x="0px" y="0px"
	 viewBox="0 0 751.5 281.5" style="enable-background:new 0 0 751.5 281.5;" xml:space="preserve">
<style type="text/css">
	.st0{fill-rule:evenodd;clip-rule:evenodd;fill:#009E97;}
	.st1{fill-rule:evenodd;clip-rule:evenodd;fill:#FFFFFF;}
	.st2{fill:#041E42;}
	.st3{fill:#009E97;}
</style>
<g>
	<g>
		<circle class="st0" cx="639.9" cy="66.9" r="60"/>
		<path class="st1" d="M682.5,62.7h-12.5c0.4-0.5,0.7-0.8,0.8-1c0,0,0,0,0,0c2.1-2.7,3.1-6,3.1-9.4c0-8.7-7-15.7-15.7-15.7
			c0,0,0,0,0,0c-8.7,0-15.8,7-15.8,15.7c0,5.3,2.6,10.1,7,13c0.1,0.1,0.1,0.1,0.2,0.2c0.4,0.2,0.8,0.5,1.2,0.7c0,0,0.1,0,0.1,0
			c0,0,0,0,0.1,0c1,0.5,2,0.9,3,1.2c-1.7,0.7-3.6,1.4-5.7,2c-3.4,0.9-6.2,2.1-8.7,3.3c-2.3-1.1-5-2.2-8.1-3.3
			c-2.1-0.7-3.9-1.4-5.5-2.1c0.9-0.3,1.7-0.6,2.6-1c0.1,0,0.2-0.1,0.3-0.1c0.2-0.1,0.4-0.2,0.5-0.3c0.1-0.1,0.3-0.1,0.4-0.2
			c0.1-0.1,0.2-0.1,0.3-0.2c4.4-2.9,7.2-7.8,7.2-13.1c0-8.6-7-15.7-15.7-15.7c0,0-0.1,0-0.1,0c-8.7,0-15.8,7-15.8,15.7
			c0,3.4,1.1,6.7,3.1,9.4c0.1,0.2,0.4,0.6,0.8,1.1h-12.4c-1.5,0-2.6,1.2-2.6,2.6s1.2,2.6,2.6,2.6H616c3.2,2.1,7.7,4.3,13.9,6.4
			c1.5,0.5,2.9,1,4.2,1.6c-4.3,2.9-6.3,5.6-6.7,6.2c0,0,0,0,0,0c-2.1,2.7-3.1,6-3.1,9.4c0,8.7,7.1,15.7,15.8,15.7h0h0h0c0,0,0,0,0,0
			c8.7,0,15.8-7.1,15.8-15.7c0-3.4-1.1-6.7-3.1-9.4c0,0,0,0,0,0c-0.5-0.7-2.5-3.2-7.1-6.2c1.4-0.5,2.8-1,4.4-1.5
			c6.2-1.8,10.8-4.2,14.2-6.5h18.5c1.5,0,2.6-1.2,2.6-2.6C685.1,63.9,684,62.7,682.5,62.7z M621.5,41.8
			C621.5,41.8,621.5,41.8,621.5,41.8c5.8,0,10.5,4.7,10.5,10.5c0,3.8-2,7.2-5.2,9.1c-1.6,0.9-3.4,1.4-5.3,1.4h-3.9
			c-3.2-2.3-4.3-3.9-4.3-4c0,0-0.1-0.1-0.1-0.1c0,0,0-0.1-0.1-0.1c-1.4-1.8-2.1-4-2.1-6.3C611.1,46.5,615.8,41.8,621.5,41.8z
			 M648.2,85.1C648.3,85.1,648.3,85.2,648.2,85.1c0.1,0.1,0.1,0.1,0.1,0.1c1.4,1.8,2.1,4,2.1,6.3c0,5.8-4.7,10.5-10.5,10.5
			c0,0,0,0,0,0s0,0,0,0c-5.8,0-10.5-4.7-10.5-10.5c0-2.3,0.7-4.5,2.1-6.3c0,0,0,0,0,0c0,0,0,0,0-0.1c0-0.1,2.4-3.3,8.1-6.6
			C646,82,648.2,85,648.2,85.1z M658.3,62.7c-1.9,0-3.7-0.5-5.3-1.4c-3.2-1.9-5.2-5.3-5.2-9c0-5.8,4.7-10.5,10.5-10.5c0,0,0,0,0,0
			c5.8,0,10.5,4.7,10.5,10.5c0,2.3-0.7,4.5-2.1,6.3c0,0,0,0,0,0c0,0,0,0,0,0c0,0-1.4,1.9-4.4,4.1H658.3z"/>
	</g>
	<g>
		<path class="st2" d="M402.6,105.2v7.1c-4.9-5.5-11.8-8.1-20.1-8.1c-18.9,0-33.5,13.5-33.5,34.5c0,21,14.6,34.5,33.5,34.5
			c6.1,0,11.3-1.4,15.6-4.1v-11.3v-2.6v-3c-3.1,3.3-7.4,5-12.2,5c-9.7,0-17.2-7-17.2-18.6c0-11.6,7.5-18.6,17.2-18.6
			c8.4,0,15.1,5.3,16.7,14.4h0c0,0,0,0,0,0c0,0,0,0,0,0.1c0.2,1.3,0.3,2.4,0.3,4.1c0,1.3,0.3,5,0.5,9.6c0.1,2.6,0,19.2,0,21.6v2.2
			H422v-67H402.6z"/>
		<g>
			<polygon class="st2" points="191,141.4 190.2,113 190.2,105.2 171.6,105.2 171.6,172.2 191,172.2 191,141.4 			"/>
			<path class="st2" d="M212.3,104.2c-6,0-11.4,1.4-16,3.9v16.5c2.8-2.5,6.5-3.7,10.7-3.7c8.6,0,13.6,5,13.6,15.8v35.4h19.4v-38.4
				C240.1,113.4,228.2,104.2,212.3,104.2z"/>
		</g>
		<path class="st2" d="M135.1,85c0-6.1,4.9-10.8,12.1-10.8c7.2,0,12.1,4.5,12.1,10.5c0,6.5-4.9,11.2-12.1,11.2
			C139.9,95.9,135.1,91.1,135.1,85z M137.5,105.2h19.4v67h-19.4V105.2z"/>
		<path class="st2" d="M294.9,169c-4,2.9-9.8,4.2-15.7,4.2c-15.9,0-25-8.1-25-24V90.4h19.4v16.3h16.6v14.9h-16.6v27.3
			c0,5.7,3,8.8,8.2,8.8c2.9,0,5.7-0.9,8-2.5L294.9,169z"/>
		<path class="st2" d="M344.7,104.2v17.9c-1.6-0.1-2.9-0.2-4.4-0.2c-10.7,0-17.8,5.9-17.8,18.7v31.6h-19.4v-67h18.6v8.8
			C326.4,107.6,334.4,104.2,344.7,104.2z"/>
		<path class="st2" d="M432.6,138.7c0-20.2,15.6-34.5,37.4-34.5c14.1,0,25.2,6.1,30,17.1l-15.1,8.1c-3.6-6.4-9-9.2-15.1-9.2
			c-9.8,0-17.6,6.8-17.6,18.6c0,11.7,7.7,18.6,17.6,18.6c6.1,0,11.5-2.7,15.1-9.2l15.1,8.2c-4.9,10.7-15.9,16.9-30,16.9
			C448.2,173.2,432.6,158.9,432.6,138.7z"/>
		<g>
			<path class="st3" d="M542.4,157.6c-6.2,0-11.2-1.8-14.6-5.2l-19.5,3.8c6.1,10.4,18,17,33.6,17c12.1,0,21.4-3.7,27.6-10.8
				l-10.3-11.2C554.6,155.5,549.5,157.6,542.4,157.6z"/>
			<path class="st2" d="M565.7,139.7l8.4-1.6c-0.1-21.4-15.7-33.9-34.6-33.9c-20.7,0-35.9,14.4-35.9,34.5c0,4.5,0.8,8.7,2.3,12.6
				L565.7,139.7z M539.5,118.9c8.1,0,13.9,4.6,15.8,11.5l-32.6,6.4C523.1,125.4,529.8,118.9,539.5,118.9z"/>
		</g>
		<g>
			<polygon class="st3" points="109.3,105.2 92.5,145.3 92.5,172.2 99.7,172.2 128,105.2 			"/>
			<polygon class="st2" points="87.1,143.3 71.6,105.2 51.5,105.2 79.7,172.2 87.1,172.2 			"/>
		</g>
	</g>
	<g>
		<path class="st3" d="M272.6,224.5L260.5,258h-9.3l-7.5-20.8l-7.8,20.8h-9.3l-12.1-33.5h9.2l7.9,22.7l8.2-22.7h8.2l8,22.7l8.2-22.7
			H272.6z"/>
		<path class="st3" d="M276,214.4c0-3.1,2.4-5.4,6-5.4s6,2.2,6,5.2c0,3.2-2.4,5.6-6,5.6S276,217.5,276,214.4z M277.2,224.5h9.7V258
			h-9.7V224.5z"/>
		<path class="st3" d="M330.2,238.8V258h-9.7v-17.7c0-5.4-2.5-7.9-6.8-7.9c-4.7,0-8,2.9-8,9V258h-9.7v-33.5h9.3v3.9
			c2.6-2.9,6.5-4.4,11.1-4.4C324.2,224,330.2,228.6,330.2,238.8z"/>
		<path class="st3" d="M371.9,244h-25.3c0.9,4.2,4.5,6.7,9.6,6.7c3.5,0,6.1-1.1,8.4-3.2l5.2,5.6c-3.1,3.5-7.8,5.4-13.8,5.4
			c-11.6,0-19.1-7.3-19.1-17.2c0-10,7.7-17.2,17.9-17.2c9.8,0,17.4,6.6,17.4,17.4C372.1,242.2,372,243.2,371.9,244z M346.5,238.4
			H363c-0.7-4.2-3.9-7-8.2-7C350.3,231.4,347.2,234.1,346.5,238.4z"/>
		<path class="st3" d="M393.7,241.3c0-10.1,7.8-17.2,18.7-17.2c7,0,12.6,3.1,15,8.5l-7.5,4c-1.8-3.2-4.5-4.6-7.5-4.6
			c-4.9,0-8.8,3.4-8.8,9.3c0,5.9,3.9,9.3,8.8,9.3c3.1,0,5.7-1.4,7.5-4.6l7.5,4.1c-2.4,5.4-8,8.5-15,8.5
			C401.5,258.5,393.7,251.4,393.7,241.3z"/>
		<path class="st3" d="M432.8,246.9v-35.1h9.7v34.6c0,2.9,1.5,4.4,4.2,4.4c1.1,0,2.2-0.3,2.7-0.6l0.4,7.5c-1.7,0.6-3.4,0.8-5,0.8
			C437.3,258.5,432.8,254.4,432.8,246.9z"/>
		<path class="st3" d="M451.5,241.3c0-10.1,7.8-17.2,18.4-17.2s18.4,7.2,18.4,17.2c0,10.1-7.7,17.2-18.4,17.2
			S451.5,251.4,451.5,241.3z M478.5,241.3c0-5.8-3.7-9.3-8.5-9.3c-4.9,0-8.6,3.5-8.6,9.3c0,5.8,3.7,9.3,8.6,9.3
			C474.8,250.6,478.5,247.1,478.5,241.3z"/>
		<path class="st3" d="M528.5,224.5V258h-9.2v-4c-2.6,2.9-6.3,4.5-10.4,4.5c-8.4,0-14.3-4.7-14.3-15.1v-18.9h9.7V242
			c0,5.6,2.5,8.1,6.8,8.1c4.5,0,7.7-2.9,7.7-9v-16.6H528.5z"/>
		<path class="st3" d="M571.7,211.8V258h-9.3v-3.9c-2.4,2.9-6,4.4-10.5,4.4c-9.5,0-16.8-6.7-16.8-17.2c0-10.5,7.3-17.2,16.8-17.2
			c4.1,0,7.6,1.3,10,4v-16.3H571.7z M562.2,241.3c0-5.8-3.7-9.3-8.5-9.3c-4.9,0-8.6,3.5-8.6,9.3c0,5.8,3.7,9.3,8.6,9.3
			C558.4,250.6,562.2,247.1,562.2,241.3z"/>
	</g>
</g>
</svg>
